# xmcd
#
# Track frame offsets: 
#        150
#        18899
#        34112
#        52694
#        72173
#
# Disc length: 1187 seconds
#
# Revision: 0
# Processed by: cddbd v1.5.2PL0 Copyright (c) Steve Scherf et al.
# Submitted via: ExactAudioCopy v1.0b1
#
DISCID=3104a105
DTITLE=Immigrant Union - The Winter EP
DYEAR=2010
DGENRE=Country
TTITLE0=Winter
TTITLE1=The Rope (Kerr St Overdub)
TTITLE2=My Heart's a Joke (home recording)
TTITLE3=The Shine (home recording)
TTITLE4=Immigrant Union Movie Soundtrack
EXTD=
EXTT0=
EXTT1=
EXTT2=
EXTT3=
EXTT4=
PLAYORDER=
